<?xml version="1.0" encoding="UTF-8" standalone="no"?>
<!DOCTYPE svg PUBLIC "-//W3C//DTD SVG 1.1//EN" "http://www.w3.org/Graphics/SVG/1.1/DTD/svg11.dtd">
<svg width="100%" height="100%" viewBox="0 0 248 248" version="1.1" xmlns="http://www.w3.org/2000/svg" xmlns:xlink="http://www.w3.org/1999/xlink" xml:space="preserve" xmlns:serif="http://www.serif.com/" style="fill-rule:evenodd;clip-rule:evenodd;stroke-linejoin:round;stroke-miterlimit:2;">
    <g transform="matrix(1,0,0,1,-15,-52)">
        <g transform="matrix(0.528785,0,0,0.528785,-73.307,-10.9254)">
            <path d="M636,236.25C636,171.538 583.462,119 518.75,119L284.25,119C219.538,119 167,171.538 167,236.25L167,470.75C167,535.462 219.538,588 284.25,588L518.75,588C583.462,588 636,535.462 636,470.75L636,236.25Z" style="fill:rgb(33,33,33);"/>
            <clipPath id="_clip1">
                <path d="M636,236.25C636,171.538 583.462,119 518.75,119L284.25,119C219.538,119 167,171.538 167,236.25L167,470.75C167,535.462 219.538,588 284.25,588L518.75,588C583.462,588 636,535.462 636,470.75L636,236.25Z"/>
            </clipPath>
            <g clip-path="url(#_clip1)">
                <g transform="matrix(1,0,0,1,1.5,53.5)">
                    <rect x="121" y="36" width="191" height="522" style="fill:rgb(122,129,255);"/>
                </g>
                <g transform="matrix(1,0,0,1,45.7049,84.62)">
                    <path d="M213.524,28.76L294.564,28.76L294.564,230.461L417.026,230.461L417.026,28.76L498.066,28.76L498.066,509L417.026,509L417.026,308.5L294.564,308.5L294.564,509L213.524,509L213.524,28.76Z" style="fill:white;fill-rule:nonzero;"/>
                </g>
            </g>
        </g>
    </g>
</svg>
